<?xml version="1.0" encoding="UTF-8" standalone="no"?>
<!-- Created with Inkscape (http://www.inkscape.org/) -->

<svg
   xmlns:dc="http://purl.org/dc/elements/1.1/"
   xmlns:cc="http://creativecommons.org/ns#"
   xmlns:rdf="http://www.w3.org/1999/02/22-rdf-syntax-ns#"
   xmlns:svg="http://www.w3.org/2000/svg"
   xmlns="http://www.w3.org/2000/svg"
   xmlns:sodipodi="http://sodipodi.sourceforge.net/DTD/sodipodi-0.dtd"
   xmlns:inkscape="http://www.inkscape.org/namespaces/inkscape"
   width="512"
   height="512"
   viewBox="0 0 512 512"
   id="svg5682"
   version="1.1"
   inkscape:version="0.91 r13725"
   preserveAspectRatio="xMidYMid meet"
   sodipodi:docname="person.svg">
  <defs
     id="defs5684" />
  <sodipodi:namedview
     id="base"
     pagecolor="#ffffff"
     bordercolor="#666666"
     borderopacity="1.0"
     inkscape:pageopacity="0.0"
     inkscape:pageshadow="2"
     inkscape:zoom="0.35355339"
     inkscape:cx="259.1584"
     inkscape:cy="524.81105"
     inkscape:document-units="px"
     inkscape:current-layer="layer1"
     showgrid="false"
     fit-margin-top="0"
     fit-margin-left="0"
     fit-margin-right="0"
     fit-margin-bottom="0"
     showguides="false"
     inkscape:window-width="1564"
     inkscape:window-height="913"
     inkscape:window-x="190"
     inkscape:window-y="124"
     inkscape:window-maximized="0"
     units="px" />
  <metadata
     id="metadata5687">
    <rdf:RDF>
      <cc:Work
         rdf:about="">
        <dc:format>image/svg+xml</dc:format>
        <dc:type
           rdf:resource="http://purl.org/dc/dcmitype/StillImage" />
        <dc:title></dc:title>
      </cc:Work>
    </rdf:RDF>
  </metadata>
  <g
     inkscape:label="Layer 1"
     inkscape:groupmode="layer"
     id="layer1"
     transform="translate(-358.21426,-299.29083)">
    <path
       style="fill:#003862;fill-opacity:1;stroke:none;stroke-width:2;stroke-miterlimit:10;stroke-dasharray:none;stroke-dashoffset:0;stroke-opacity:1"
       d="m 614.21423,379.2908 a 104.00002,104.00002 0 0 0 -104,104 104.00002,104.00002 0 0 0 60.21875,94.20313 C 503.37793,596.55358 454.21423,658.12498 454.21423,731.2908 l 16,0 c 0,-79.52905 64.47095,-144 144,-144 79.52905,0 144,64.47095 144,144 l 16,0 c 0,-73.16582 -49.1637,-134.73722 -116.21875,-153.79687 a 104.00002,104.00002 0 0 0 60.21875,-94.20313 104.00002,104.00002 0 0 0 -104,-104 z m 0,16 a 88.000008,88.000008 0 0 1 88,88 88.000008,88.000008 0 0 1 -88,88 88.000008,88.000008 0 0 1 -88,-88 88.000008,88.000008 0 0 1 88,-88 z"
       id="path4421"
       inkscape:connector-curvature="0" />
  </g>
</svg>
