<?xml version="1.0" encoding="UTF-8" standalone="no"?>
<!-- Generator: Adobe Illustrator 19.1.0, SVG Export Plug-In . SVG Version: 6.00 Build 0)  -->

<svg
   version="1.1"
   id="Capa_1"
   x="0px"
   y="0px"
   viewBox="0 0 12 12"
   xml:space="preserve"
   sodipodi:docname="link-svgrepo-com.svg"
   width="12"
   height="12"
   inkscape:version="1.1 (c68e22c387, 2021-05-23)"
   xmlns:inkscape="http://www.inkscape.org/namespaces/inkscape"
   xmlns:sodipodi="http://sodipodi.sourceforge.net/DTD/sodipodi-0.dtd"
   xmlns="http://www.w3.org/2000/svg"
   xmlns:svg="http://www.w3.org/2000/svg"><defs
   id="defs43" /><sodipodi:namedview
   id="namedview41"
   pagecolor="#ffffff"
   bordercolor="#666666"
   borderopacity="1.0"
   inkscape:pageshadow="2"
   inkscape:pageopacity="0.0"
   inkscape:pagecheckerboard="0"
   showgrid="false"
   width="12px"
   scale-x="1"
   inkscape:zoom="7.2559063"
   inkscape:cx="58.297335"
   inkscape:cy="30.389036"
   inkscape:window-width="1920"
   inkscape:window-height="1017"
   inkscape:window-x="-8"
   inkscape:window-y="32"
   inkscape:window-maximized="1"
   inkscape:current-layer="Capa_1" />
<g
   id="g8"
   transform="matrix(0.03058076,0,0,0.03033493,4.8470963e-4,0.00193932)">
	<path
   d="m 369.658,28.812 c 38.41,38.4 38.41,100.89 0,139.3 l -82.73,82.74 c -6.13,6.12 -13,11.37 -20.43,15.66 -4.28,7.43 -9.53,14.29 -15.64,20.41 l -82.74,82.73 c -19.21,19.21 -44.44,28.81 -69.66,28.81 -25.23,0 -50.45,-9.6 -69.65,-28.8 -38.41,-38.41 -38.41,-100.9 0,-139.31 l 82.74,-82.74 c 6.12,-6.12 12.98,-11.37 20.41,-15.65 4.28,-7.43 9.53,-14.3 15.66,-20.42 l 82.74,-82.74 c 18.57,-18.57 43.31,-28.8 69.64,-28.8 0.01,0 0.01,0 0.01,0 26.34,0 51.079,10.231 69.65,28.81 z m -10.601,128.691 c 32.55,-32.56 32.55,-85.53 0,-118.09 -15.75,-15.74 -36.72,-24.41 -59.05,-24.41 h -0.01 c -22.33,0 -43.29,8.66 -59.04,24.41 l -81.92,81.92 c 15.88,-3.64 32.58,-3.35 48.47,1.03 l 58.2,-58.2 c 9.15,-9.15 21.33,-14.19 34.29,-14.19 0.01,0 0.01,0 0.01,0 12.97,0 25.15,5.04 34.3,14.19 9.15,9.15 14.19,21.33 14.19,34.3 0,12.96 -5.04,25.14 -14.19,34.29 l -82.74,82.74 c -7.72,7.72 -17.95,12.65 -28.8,13.88 -1.87,0.21 -3.74,0.32 -5.59,0.32 -12.81,0 -25.03,-5.02 -34.21,-14.19 -8.02,-8.03 -12.86,-18.4 -13.94,-29.46 -4.29,1.66 -8.18,4.19 -11.52,7.53 l -18.01,18.01 c 4.17,10.77 10.46,20.4 18.73,28.67 9.35,9.35 20.43,16.17 32.93,20.25 21.93,7.19 46.08,4.98 66.25,-6.07 6.91,-3.78 13.27,-8.56 18.91,-14.19 z m -25.56,-59.04 c 0,-8.96 -3.48,-17.37 -9.8,-23.69 -6.32,-6.32 -14.73,-9.8 -23.69,-9.8 h -0.01 c -8.96,0 -17.37,3.48 -23.68,9.79 l -53.3,53.3 c 10.31,4.81 19.65,11.35 27.84,19.55 8.2,8.2 14.75,17.53 19.55,27.83 l 53.29,-53.29 c 6.32,-6.321 9.8,-14.73 9.8,-23.69 z m -92.539,106.42 18.02,-18.01 c -4.17,-10.76 -10.45,-20.38 -18.72,-28.65 -9.35,-9.35 -20.44,-16.17 -32.95,-20.26 -21.94,-7.18 -46.08,-4.97 -66.25,6.07 -6.92,3.78 -13.27,8.55 -18.9,14.19 l -82.74,82.73 c -32.56,32.56 -32.56,85.54 0,118.1 32.55,32.56 85.53,32.56 118.09,0 l 81.92,-81.92 c -7.28,1.67 -14.72,2.52 -22.19,2.52 -8.82,0 -17.66,-1.19 -26.27,-3.56 l -58.21,58.21 c -4.58,4.58 -9.91,8.12 -15.72,10.53 -5.81,2.4 -12.1,3.66 -18.58,3.66 -12.97,0 -25.15,-5.04 -34.3,-14.18 -18.91,-18.92 -18.91,-49.69 0,-68.61 l 82.74,-82.74 c 7.72,-7.72 17.95,-12.64 28.8,-13.87 14.79,-1.68 29.31,3.37 39.81,13.87 8.03,8.03 12.86,18.4 13.94,29.45 4.279,-1.651 8.18,-4.19 11.51,-7.53 z m -26.381,9.689 c -0.61,-7.88 -3.98,-15.3 -9.68,-21 -5.7,-5.7 -13.12,-9.06 -21,-9.68 0.62,7.88 3.98,15.3 9.68,21 5.7,5.7 13.12,9.07 21,9.68 z m -92.419,109.121 53.29,-53.29 c -10.3,-4.8 -19.63,-11.35 -27.83,-19.55 -8.2,-8.19 -14.74,-17.53 -19.55,-27.84 l -53.3,53.3 c -13.06,13.06 -13.06,34.32 0,47.39 3.15,3.16 6.84,5.6 10.85,7.26 4.02,1.66 8.36,2.53 12.84,2.53 8.96,-10e-4 17.38,-3.48 23.7,-9.8 z"
   id="path2" />
	<path
   style="fill:#f48c6c"
   d="m 359.057,39.412 c 32.55,32.56 32.55,85.53 0,118.09 l -82.74,82.74 c -5.64,5.63 -12,10.41 -18.91,14.19 -20.17,11.05 -44.32,13.26 -66.25,6.07 -12.5,-4.08 -23.58,-10.9 -32.93,-20.25 -8.27,-8.27 -14.56,-17.9 -18.73,-28.67 l 18.01,-18.01 c 3.34,-3.34 7.23,-5.87 11.52,-7.53 1.08,11.06 5.92,21.43 13.94,29.46 9.18,9.17 21.4,14.19 34.21,14.19 1.85,0 3.72,-0.11 5.59,-0.32 10.85,-1.23 21.08,-6.16 28.8,-13.88 l 82.74,-82.74 c 9.15,-9.15 14.19,-21.33 14.19,-34.29 0,-12.97 -5.04,-25.15 -14.19,-34.3 -9.15,-9.15 -21.33,-14.19 -34.3,-14.19 0,0 0,0 -0.01,0 -12.96,0 -25.14,5.04 -34.29,14.19 l -58.2,58.2 c -15.89,-4.38 -32.59,-4.67 -48.47,-1.03 l 81.92,-81.92 c 15.75,-15.75 36.71,-24.41 59.04,-24.41 h 0.01 c 22.33,0 43.3,8.671 59.05,24.41 z"
   id="path4" />
	<path
   style="fill:#3dd0f2"
   d="m 258.978,186.872 -18.02,18.01 c -3.33,3.34 -7.23,5.88 -11.51,7.53 -1.08,-11.05 -5.91,-21.42 -13.94,-29.45 -10.5,-10.5 -25.02,-15.55 -39.81,-13.87 -10.85,1.23 -21.08,6.15 -28.8,13.87 l -82.74,82.74 c -18.91,18.92 -18.91,49.69 0,68.61 9.15,9.14 21.33,14.18 34.3,14.18 6.48,0 12.77,-1.26 18.58,-3.66 5.81,-2.41 11.14,-5.95 15.72,-10.53 l 58.21,-58.21 c 8.61,2.37 17.45,3.56 26.27,3.56 7.47,0 14.91,-0.85 22.19,-2.52 l -81.92,81.92 c -32.56,32.56 -85.54,32.56 -118.09,0 -32.56,-32.56 -32.56,-85.54 0,-118.1 l 82.74,-82.73 c 5.63,-5.64 11.98,-10.41 18.9,-14.19 20.17,-11.04 44.31,-13.25 66.25,-6.07 12.51,4.09 23.6,10.91 32.95,20.26 8.269,8.27 14.549,17.891 18.72,28.65 z"
   id="path6" />
</g>
<g
   id="g10">
</g>
<g
   id="g12">
</g>
<g
   id="g14">
</g>
<g
   id="g16">
</g>
<g
   id="g18">
</g>
<g
   id="g20">
</g>
<g
   id="g22">
</g>
<g
   id="g24">
</g>
<g
   id="g26">
</g>
<g
   id="g28">
</g>
<g
   id="g30">
</g>
<g
   id="g32">
</g>
<g
   id="g34">
</g>
<g
   id="g36">
</g>
<g
   id="g38">
</g>
</svg>

