<?xml version="1.0" encoding="UTF-8" standalone="no"?>
<svg
   id="svg2"
   viewBox="0 0 12 12"
   version="1.1"
   sodipodi:docname="plus.svg.svg"
   width="12"
   height="12"
   inkscape:version="1.1 (c68e22c387, 2021-05-23)"
   xmlns:inkscape="http://www.inkscape.org/namespaces/inkscape"
   xmlns:sodipodi="http://sodipodi.sourceforge.net/DTD/sodipodi-0.dtd"
   xmlns="http://www.w3.org/2000/svg"
   xmlns:svg="http://www.w3.org/2000/svg"
   xmlns:rdf="http://www.w3.org/1999/02/22-rdf-syntax-ns#"
   xmlns:cc="http://creativecommons.org/ns#"
   xmlns:dc="http://purl.org/dc/elements/1.1/">
  <sodipodi:namedview
     id="namedview47"
     pagecolor="#ffffff"
     bordercolor="#666666"
     borderopacity="1.0"
     inkscape:pageshadow="2"
     inkscape:pageopacity="0.0"
     inkscape:pagecheckerboard="0"
     showgrid="false"
     inkscape:zoom="22.472222"
     inkscape:cx="12.28183"
     inkscape:cy="14.351051"
     inkscape:window-width="1920"
     inkscape:window-height="1017"
     inkscape:window-x="1912"
     inkscape:window-y="32"
     inkscape:window-maximized="1"
     inkscape:current-layer="g1370" />
  <defs
     id="defs4">
    <linearGradient
       id="linearGradient1375"
       y2="57.588001"
       gradientUnits="userSpaceOnUse"
       x2="27.493999"
       gradientTransform="matrix(0.43344738,-0.43563624,0.43342755,0.43561638,-0.17915497,27.588167)"
       y1="6.2061"
       x1="36.304001">
      <stop
         id="stop1354"
         stop-color="#179807"
         offset="0" />
      <stop
         id="stop1356"
         stop-color="#0b5102"
         offset="1" />
    </linearGradient>
    <linearGradient
       id="linearGradient1377"
       y2="57.789001"
       gradientUnits="userSpaceOnUse"
       x2="27.573999"
       gradientTransform="matrix(0.43344738,-0.43563624,0.43342755,0.43561638,-0.17512975,27.587418)"
       y1="6.1829"
       x1="36.464001">
      <stop
         id="stop1367"
         stop-color="#24f00a"
         offset="0" />
      <stop
         id="stop1370"
         stop-color="#0b6400"
         offset="1" />
    </linearGradient>
    <linearGradient
       id="linearGradient1379"
       y2="49.282001"
       gradientUnits="userSpaceOnUse"
       x2="27.469"
       gradientTransform="matrix(0.43340014,-0.42520859,0.43337988,0.44613896,-0.17574498,26.91701)"
       y1="19.205999"
       x1="32.682999">
      <stop
         id="stop1380"
         stop-color="#b0ffa5"
         offset="0" />
      <stop
         id="stop1382"
         stop-color="#26bc14"
         stop-opacity=".44706"
         offset="1" />
    </linearGradient>
  </defs>
  <g
     id="layer1"
     transform="matrix(0.45387691,-0.00204899,0.00205633,0.45170391,-0.15617611,-0.07711088)">
    <g
       id="g1370"
       transform="translate(-14,-14)">
      <path
         id="path1349"
         fill="url(#linearGradient1375)"
         d="m 14.517125,30.128303 c 0.03727,0.406805 0.378655,0.716209 0.784907,0.712454 l 9.022525,-2.1e-4 -2.03e-4,9.067338 c -0.0015,0.209771 0.08125,0.411298 0.22883,0.559633 0.147589,0.148336 0.348103,0.23074 0.556074,0.229986 l 4.904097,-1.38e-4 c 0.208717,7.77e-4 0.40849,-0.08167 0.556086,-0.230011 0.147596,-0.148341 0.230342,-0.349873 0.229602,-0.559644 l 2.03e-4,-9.067337 9.021778,-2.09e-4 c 0.208717,7.76e-4 0.409236,-0.08168 0.556831,-0.230013 0.146851,-0.148341 0.229597,-0.349872 0.228857,-0.559643 l 1.25e-4,-4.928113 c 7.49e-4,-0.209771 -0.08199,-0.411298 -0.228831,-0.559633 -0.147589,-0.148333 -0.348105,-0.23074 -0.556822,-0.229984 l -9.021777,2.07e-4 2.02e-4,-9.067338 c 7.4e-4,-0.209741 -0.082,-0.41127 -0.229586,-0.559603 -0.147589,-0.148336 -0.347358,-0.230741 -0.556074,-0.229987 l -4.904097,1.39e-4 c -0.207971,-7.78e-4 -0.408491,0.08167 -0.556087,0.23001 -0.147596,0.148342 -0.230342,0.349874 -0.228855,0.559644 l -2.02e-4,9.067339 -9.022524,2.09e-4 c -0.208717,-7.76e-4 -0.408491,0.08168 -0.556086,0.230013 -0.147597,0.148342 -0.230342,0.349872 -0.228857,0.559643 l -1.24e-4,4.928114 c -0.0015,0.02623 -0.0015,0.05169 -2e-6,0.07717 z"
         style="fill:url(#linearGradient1375);stroke-width:0.747297" />
      <path
         id="path1468"
         fill="url(#linearGradient1377)"
         d="m 15.209727,25.245125 c -0.06485,0.110881 -0.09617,0.238243 -0.0917,0.367101 l -1.22e-4,3.949683 c 0.0023,0.370845 0.301132,0.671259 0.670114,0.673498 l 9.138808,-2.08e-4 -2.09e-4,9.184211 c 0.0015,0.371593 0.300388,0.672009 0.670115,0.673497 l 3.92909,-1.39e-4 c 0.369727,-0.0015 0.668646,-0.301935 0.670146,-0.67353 l 2.09e-4,-9.184211 9.138064,-2.06e-4 c 0.369727,-0.0023 0.668646,-0.302684 0.670889,-0.67353 l 1.24e-4,-3.949682 c -0.0023,-0.370844 -0.301132,-0.671259 -0.670859,-0.673499 l -9.138065,2.07e-4 2.1e-4,-9.18421 c -0.0015,-0.371594 -0.300388,-0.672008 -0.670115,-0.673499 l -3.92909,4.2e-5 c -0.369726,0.0015 -0.668647,0.301934 -0.670146,0.673529 l -2.1e-4,9.184209 -9.138809,2.09e-4 c -0.232569,-0.0052 -0.45098,0.11089 -0.578451,0.306428 z"
         style="fill:url(#linearGradient1377);stroke-width:0.747297" />
      <path
         id="path1472"
         fill="url(#linearGradient1379)"
         d="m 15.621754,25.246994 c -0.01043,0.02373 -0.01566,0.04982 -0.01491,0.07606 l -1.23e-4,3.950113 c 0.0015,0.03301 0.01193,0.06473 0.03056,0.09214 0.0164,0.03335 0.04322,0.06098 0.07602,0.079 0.02386,0.01106 0.04994,0.01694 0.07602,0.01682 l 9.31967,0.225046 c 0.08422,-2.13e-4 0.172917,0.02514 0.228817,0.08195 0.05515,0.05752 0.07825,0.147245 0.07601,0.23186 l -1.91e-4,9.368777 c 0.0015,0.03301 0.01193,0.06472 0.03056,0.0929 0.01714,0.03338 0.04322,0.06023 0.07602,0.07826 0.02386,0.01106 0.04993,0.01694 0.07602,0.01682 l 3.929408,0.09489 c 0.03279,-7.07e-4 0.0641,-0.01044 0.09093,-0.02852 0.0328,-0.01569 0.05963,-0.04201 0.07677,-0.07458 0.01043,-0.02373 0.01565,-0.04983 0.01491,-0.07605 l 2.19e-4,-9.36878 c -0.0022,-0.08473 0.02088,-0.173325 0.07603,-0.228189 0.0559,-0.0541 0.144597,-0.07519 0.22882,-0.07089 l 9.319669,0.225046 c 0.03279,-7.08e-4 0.0641,-0.01045 0.09168,-0.0285 0.0328,-0.01644 0.05889,-0.04205 0.07603,-0.07458 0.01043,-0.02373 0.01565,-0.04982 0.01491,-0.07606 l 1.22e-4,-3.950112 c -0.0015,-0.03301 -0.01193,-0.06473 -0.03056,-0.09214 -0.0164,-0.03337 -0.04322,-0.06098 -0.07602,-0.079 -0.02386,-0.01106 -0.04993,-0.01694 -0.07602,-0.01681 l -9.319702,-0.225071 c -0.08422,2.12e-4 -0.172918,-0.02515 -0.228817,-0.08195 -0.05515,-0.05752 -0.07825,-0.147245 -0.07601,-0.231861 l 2.2e-4,-9.368779 c -0.0015,-0.03301 -0.01193,-0.06472 -0.03056,-0.0929 -0.01714,-0.03338 -0.04322,-0.06024 -0.07602,-0.07826 -0.02385,-0.01106 -0.04994,-0.01694 -0.07602,-0.01682 l -3.929407,-0.09489 c -0.03279,7.06e-4 -0.0641,0.01044 -0.09093,0.02852 -0.0328,0.01569 -0.05963,0.04201 -0.07677,0.07458 -0.01043,0.02373 -0.01566,0.04982 -0.01491,0.07605 l -2.2e-4,9.368781 c 0.0022,0.08473 -0.02088,0.173325 -0.07603,0.228187 -0.0559,0.0541 -0.144597,0.07519 -0.22882,0.07089 L 15.789459,25.1439 c -0.03279,7.07e-4 -0.0641,0.01044 -0.09168,0.0285 -0.0328,0.01643 -0.05888,0.04205 -0.07603,0.07458 z"
         style="fill:url(#linearGradient1379);stroke-width:0.747297" />
    </g>
  </g>
  <metadata
     id="metadata44">
    <rdf:RDF>
      <cc:Work>
        <dc:format>image/svg+xml</dc:format>
        <dc:type
           rdf:resource="http://purl.org/dc/dcmitype/StillImage" />
        <cc:license
           rdf:resource="http://creativecommons.org/publicdomain/zero/1.0/" />
        <dc:publisher>
          <cc:Agent
             rdf:about="http://openclipart.org/">
            <dc:title>Openclipart</dc:title>
          </cc:Agent>
        </dc:publisher>
        <dc:title>add</dc:title>
        <dc:date>2008-05-26T11:24:31</dc:date>
        <dc:description>add, add, clip art, clipart, icon, icon, image, media, plus, plus, png, public domain, svg, </dc:description>
        <dc:source>http://openclipart.org/detail/16950/add-by-jean_victor_balin</dc:source>
        <dc:creator>
          <cc:Agent>
            <dc:title>jean_victor_balin</dc:title>
          </cc:Agent>
        </dc:creator>
        <dc:subject>
          <rdf:Bag>
            <rdf:li>add</rdf:li>
            <rdf:li>clip art</rdf:li>
            <rdf:li>clipart</rdf:li>
            <rdf:li>icon</rdf:li>
            <rdf:li>image</rdf:li>
            <rdf:li>media</rdf:li>
            <rdf:li>plus</rdf:li>
            <rdf:li>png</rdf:li>
            <rdf:li>public domain</rdf:li>
            <rdf:li>svg</rdf:li>
          </rdf:Bag>
        </dc:subject>
      </cc:Work>
      <cc:License
         rdf:about="http://creativecommons.org/publicdomain/zero/1.0/">
        <cc:permits
           rdf:resource="http://creativecommons.org/ns#Reproduction" />
        <cc:permits
           rdf:resource="http://creativecommons.org/ns#Distribution" />
        <cc:permits
           rdf:resource="http://creativecommons.org/ns#DerivativeWorks" />
      </cc:License>
    </rdf:RDF>
  </metadata>
</svg>

